<svg height="41" viewBox="0 0 104 41" width="104" xmlns="http://www.w3.org/2000/svg" xmlns:xlink="http://www.w3.org/1999/xlink"><mask id="a" fill="#fff"><path d="m.457 16.545h30.98v-16.367h-30.981v16.367z" fill="none"/></mask><mask id="b" fill="#fff"><path d="m0 42h104v-42h-104z" fill="none"/></mask><g fill="#fff" fill-rule="evenodd"><path d="m44.46 22.91a59.27 59.27 0 0 1 4.249 1.696 93.175 93.175 0 0 0 -12.865 5.94 86.372 86.372 0 0 0 -4.25-1.92 94.258 94.258 0 0 1 12.866-5.716z"/><path d="m39.787 21.636a76.432 76.432 0 0 0 -13.458 5.967c1.366.543 2.732 1.085 4.058 1.67a73.038 73.038 0 0 1 13.056-6.343c-1.205-.46-2.41-.918-3.656-1.294m34.104 8.516c.085.181.298.242.51.242.127 0 .255 0 .34-.06a.202.202 0 0 0 .084-.152c0-.122-.127-.182-.297-.182l-.297-.06c-.085-.031-.212-.031-.297-.092a.295.295 0 0 1 -.128-.242c0-.243.298-.333.595-.333.255 0 .51.09.595.303l-.213.03c0-.122-.212-.212-.425-.212-.127 0-.34.06-.34.182 0 .151.128.181.298.212l.255.03c.127.03.254.06.34.09.085.092.127.152.127.274a.298.298 0 0 1 -.17.272 1.121 1.121 0 0 1 -.467.091c-.34 0-.552-.121-.68-.363z"/><path d="m75.173 30.545h-.135v-1.272h.236l.439 1.018.371-1.018h.27v1.272h-.168v-1.114l-.44 1.114h-.134l-.44-1.114zm-19.882-7.557a94.412 94.412 0 0 0 -11.623-3.897c-1.432.351-2.824.737-4.174 1.123a91.721 91.721 0 0 1 11.95 3.968c1.268-.422 2.537-.808 3.847-1.194m6.582-1.175a88.236 88.236 0 0 0 -11.92-3.995c-1.32.235-2.599.51-3.877.823 4.042 1.135 8.002 2.545 11.796 4.268 1.32-.392 2.682-.783 4.001-1.096"/><path d="m26.907.178c-9.504 3-18.402 7.291-26.45 12.646a83.243 83.243 0 0 1 5.864 3.722c7.603-5.659 16.056-10.368 25.115-13.938a73.726 73.726 0 0 0 -4.53-2.43" mask="url(#a)" transform="translate(43.443 24.182)"/><path d="m63.55 21.636c-9.577 2.58-18.565 6.77-26.69 12.331 1.806.927 3.612 1.895 5.378 2.942 7.967-5.642 16.798-10.075 26.218-12.976-1.61-.806-3.219-1.611-4.907-2.297m-26.03-11.656c.592 0 .85-.517.85-2.362 0-1.697-.184-2.324-.85-2.324s-.85.627-.85 2.324c0 1.845.258 2.361.85 2.361m0-6.16c2.182 0 3.291 1.623 3.291 3.8 0 2.25-1.072 3.836-3.291 3.836-2.256 0-3.291-1.587-3.291-3.837 0-2.176 1.11-3.8 3.291-3.8m4.395 1.509h-1.104v-1.763h1.104v-.88c0-1.964 1.02-2.684 2.803-2.684.51 0 .935.08 1.359.12v1.963c-.128-.04-.34-.08-.51-.08-.721 0-.976.28-.976.76v.801h1.486v1.763h-1.486v6.128h-2.676zm-28.81 2.458c-.847.074-1.501.407-1.501 1.334 0 .519.269.778.731.778.27 0 .577-.185.77-.445zm0-1.743c0-.444-.193-.74-.616-.74-.616 0-.808.518-.808.963l-2.155-.445c.268-1.409 1.654-2.002 3.04-2.002 1.462 0 3.002.593 3.002 2.224v4.078c0 .816.115 1.075.23 1.186h-2.54a5.897 5.897 0 0 1 -.076-.667c-.424.408-1.155.816-1.848.816-1.231 0-2.155-.816-2.117-2.15.04-1.89 2.271-2.485 3.888-2.67zm6.594.082v5.33h-2.584v-7.446h2.504l.04.756c.565-.53 1.252-.945 2.261-.945 1.131 0 1.777.718 1.777 1.74v5.897h-2.584v-5.143c0-.415-.162-.643-.606-.643-.283 0-.566.152-.808.454m5.315-6.124h2.407v5.81h.037l1.768-2.415h2.37l-1.993 2.455 1.993 5.605h-2.482l-1.166-3.519h-.038l-.489.614v2.905h-2.407zm-22.314 4.54h.952c.992 0 1.39-.572 1.39-1.227 0-1.104-.715-1.268-1.35-1.268h-.991v2.496zm0 4.787h1.031c.635 0 1.429-.286 1.429-1.432 0-.858-.517-1.431-1.429-1.431h-1.03v2.863zm3.136-3.845c1.19.41 2.064 1.432 2.064 2.905 0 1.963-1.509 3.068-3.652 3.068h-4.247v-11.455h4.366c1.985 0 3.255 1.227 3.255 2.782 0 1.514-.992 2.291-1.786 2.618zm91.56 2.303c-.846.074-1.5.407-1.5 1.334 0 .519.269.778.692.778.308 0 .577-.185.808-.445zm0-1.743c0-.444-.23-.74-.654-.74-.577 0-.77.518-.808.963l-2.117-.445c.27-1.409 1.655-2.002 3.04-2.002 1.463 0 3.002.593 3.002 2.224v4.078c0 .816.116 1.075.193 1.186h-2.502a5.897 5.897 0 0 1 -.077-.667c-.423.408-1.155.816-1.885.816-1.194 0-2.156-.816-2.118-2.15.078-1.89 2.31-2.485 3.926-2.67zm-23.312.728c0-.665-.076-1.477-.924-1.477-.693 0-.962.812-.923 1.476h1.847zm-1.847 1.4c-.039.627.154 1.734 1.155 1.734.577 0 1.078-.443 1.193-.996l1.655.553c-.115.332-.847 1.993-3.041 1.993-2.348 0-3.426-1.808-3.426-3.837 0-2.066 1.155-3.8 3.387-3.8 2.349 0 3.195 1.955 3.195 3.874v.48h-4.118z"/><path d="m82.937 11.455h2.633v-7.637h-2.633zm0-8.91h2.633v-2.545h-2.633zm8.377 4.187c0-.294 0-.664-.118-.922-.117-.295-.313-.516-.705-.516-.823 0-.94.959-.94 2.434 0 1.624.274 2.177.94 2.177.862 0 .94-.848.94-1.402l1.96.258c-.197 1.771-1.294 2.694-3.096 2.694-2.233 0-3.409-1.845-3.409-3.653 0-1.992 1.176-3.984 3.526-3.984 2.626 0 3.056 2.177 3.056 2.914zm-39.096.386h1.944l-.845-4.663h-.085zm-.72-7.118h3.932l2.494 11.455h-2.874l-.465-2.332h-2.748l-.55 2.332h-2.577l2.789-11.455zm26.172 4.007h2.613v.983h.042c.547-.794 1.558-1.172 2.612-1.172v2.42a3.112 3.112 0 0 0 -1.096-.189c-.716 0-1.18.227-1.474.567v4.839h-2.697z" mask="url(#b)"/><path d="m64.46 6.124v5.33h-2.542v-5.102c0-.416-.12-.68-.605-.68-.242 0-.645.188-.847.453v5.33h-2.542v-7.447h2.502l.04.756c.565-.491 1.372-.945 2.3-.945.807 0 1.332.416 1.574.983h.04c.444-.453 1.21-.983 2.26-.983 1.09 0 1.816.643 1.816 1.701v5.936h-2.543v-5.106c0-.416-.121-.68-.605-.68-.323 0-.686.264-.847.453m37.146 4.059c0 .566.479.99 1.1.99.575 0 1.054-.424 1.054-.99s-.479-1.038-1.053-1.038c-.622 0-1.101.472-1.101 1.038m-.24 0c0-.708.575-1.273 1.34-1.273.718 0 1.293.565 1.293 1.273 0 .707-.575 1.273-1.292 1.273-.766 0-1.34-.566-1.34-1.273" mask="url(#b)"/><path d="m103.21 10.691c.21 0 .527.042.527-.17 0-.17-.158-.212-.369-.212h-.421v.382zm.737.764h-.263l-.474-.594h-.263v.594h-.263v-1.273h.736c.106 0 .264 0 .369.043.158.084.211.169.211.297 0 .254-.263.339-.527.339z" mask="url(#b)"/></g></svg>