<svg xmlns="http://www.w3.org/2000/svg" width="52" height="57" viewBox="0 0 52 57">
    <g fill="none" fill-rule="evenodd">
        <path fill="#30383C" d="M14.422 0L8.536 6.544 0 4.909l5.43 16.678 2.479 20.318L20.362 57h10.963l12.296-15.054 2.636-20.51L52 4.908l-8.458 1.635L37.434 0z"/>
        <path fill="#FFF" d="M32.52 20.706v1.6h4.882V38.2H13.745V22.306h2.812v-1.6H12v19.097h27.147V20.706z"/>
        <path fill="#FFF" d="M25.308 19.765h5.38v5.353h-5.38zM26.693 25.778h8.797v8.753h-8.797zM19.525 17.071h4.516v4.759h-4.516zM21.229 27.411h3.009v2.994h-3.009zM18.219 23.767h2.358v2.347h-2.358zM18.21 31.655h2.092v2.082H18.21z"/>
    </g>
</svg>
