<svg xmlns="http://www.w3.org/2000/svg" width="52" height="57" viewBox="0 0 52 57">
    <g fill="none" fill-rule="evenodd">
        <path fill="#30383C" d="M14.422 0L8.536 6.544 0 4.909l5.43 16.678 2.479 20.318L20.362 57h10.963l12.296-15.054 2.636-20.51L52 4.908l-8.458 1.635L37.434 0z"/>
        <path fill="#FFF" d="M18 39.855c0 1.035.856 1.874 1.91 1.874H31.63c1.055 0 1.91-.84 1.91-1.874V16.4H18v23.455zm7.77-1.938c.754 0 1.367.602 1.367 1.341 0 .74-.613 1.342-1.367 1.342-.755 0-1.368-.602-1.368-1.342 0-.74.613-1.341 1.368-1.341zM31.628 12H19.911C18.856 12 18 12.84 18 13.874v1.9h15.54v-1.9C33.538 12.84 32.683 12 31.627 12zm-9.207 2.329a.43.43 0 0 1-.434-.426.43.43 0 0 1 .434-.426c.239 0 .434.19.434.426a.43.43 0 0 1-.434.426zm5.28-.114h-3.862a.315.315 0 0 1-.318-.312c0-.173.142-.313.318-.313H27.7c.176 0 .319.14.319.313a.316.316 0 0 1-.319.312z"/>
    </g>
</svg>
